<svg width="338" height="638" viewBox="0 0 338 638" fill="none" xmlns="http://www.w3.org/2000/svg">
<path fill-rule="evenodd" clip-rule="evenodd" d="M299 63.9999V-26H298V63.9999L200 63.9999V-26H199V63.9999L100 64V-26H99V64L0 64V65L99 65L99 164L0 164V165L99 165V264L0 264V265L99 265L99 363L0 363V364L99 364V463L0 463V464L99 464L99 562H0V563H99V663H100V563H199V663H200V563L298 563V663H299V563H397V562H299V464L397 464V463L299 463V364L397 364V363L299 363L299 265L397 265V264L299 264V165L397 165V164L299 164V64.9999L397 64.9999V63.9999L299 63.9999ZM100 562H199V464L100 464L100 562ZM100 463L199 463V364L100 364V463ZM100 363L199 363L199 265L100 265L100 363ZM100 264L199 264V165L100 165V264ZM100 164L199 164V64.9999L100 65L100 164ZM200 164V64.9999L298 64.9999V164L200 164ZM200 264V165L298 165V264L200 264ZM200 363L200 265L298 265L298 363L200 363ZM200 463V364L298 364V463L200 463ZM200 562V464L298 464V562L200 562Z" fill="url(#paint0_radial_182_4917)"/>
<defs>
<radialGradient id="paint0_radial_182_4917" cx="0" cy="0" r="1" gradientUnits="userSpaceOnUse" gradientTransform="translate(319.5 206) rotate(113.506) scale(477.634 275.211)">
<stop offset="0.25146" stop-color="#414446"/>
<stop offset="1" stop-color="#101011"/>
</radialGradient>
</defs>
</svg>
