<svg width="338" height="638" viewBox="0 0 338 638" fill="none" xmlns="http://www.w3.org/2000/svg">
<path fill-rule="evenodd" clip-rule="evenodd" d="M39 63.9999V-26H40V63.9999L138 63.9999V-26H139V63.9999L238 64V-26H239V64L338 64V65L239 65L239 164L338 164V165L239 165V264L338 264V265L239 265L239 363L338 363V364L239 364V463L338 463V464L239 464L239 562H338V563H239V663H238V563H139V663H138V563L40 563V663H39V563H-59V562H39V464L-59 464V463L39 463V364L-59 364V363L39 363L39 265L-59 265V264L39 264V165L-59 165V164L39 164V64.9999L-59 64.9999V63.9999L39 63.9999ZM238 562H139V464L238 464L238 562ZM238 463L139 463V364L238 364V463ZM238 363L139 363L139 265L238 265L238 363ZM238 264L139 264V165L238 165V264ZM238 164L139 164V64.9999L238 65L238 164ZM138 164V64.9999L40 64.9999V164L138 164ZM138 264V165L40 165V264L138 264ZM138 363L138 265L40 265L40 363L138 363ZM138 463V364L40 364V463L138 463ZM138 562V464L40 464V562L138 562Z" fill="url(#paint0_radial_182_4918)"/>
<defs>
<radialGradient id="paint0_radial_182_4918" cx="0" cy="0" r="1" gradientUnits="userSpaceOnUse" gradientTransform="translate(18.5 206) rotate(66.4943) scale(477.634 275.211)">
<stop offset="0.25146" stop-color="#414446"/>
<stop offset="1" stop-color="#101011"/>
</radialGradient>
</defs>
</svg>
