<svg width="175" height="48" viewBox="0 0 175 48" fill="none" xmlns="http://www.w3.org/2000/svg">
<rect width="175" height="48" rx="24" fill="#1E1E1F"/>
<circle cx="24" cy="24" r="8" fill="#02AAFF"/>
<path d="M48.2919 32.2461C47.6434 32.2461 47.0731 32.1445 46.5809 31.9414C46.0966 31.7383 45.6825 31.4688 45.3387 31.1328C44.995 30.7969 44.7098 30.4336 44.4833 30.043H44.3778V32H41.9169V14.5391H44.4364V21.2422H44.5184C44.7294 20.8672 45.0028 20.5195 45.3387 20.1992C45.6747 19.8711 46.0848 19.6055 46.5692 19.4023C47.0614 19.1992 47.6395 19.0977 48.3036 19.0977C49.3661 19.0977 50.2997 19.3672 51.1044 19.9062C51.9169 20.4375 52.5536 21.1953 53.0145 22.1797C53.4755 23.1641 53.7059 24.3242 53.7059 25.6602C53.7059 26.9961 53.4755 28.1602 53.0145 29.1523C52.5614 30.1367 51.9286 30.8984 51.1161 31.4375C50.3114 31.9766 49.37 32.2461 48.2919 32.2461ZM47.7645 30.0898C48.4677 30.0898 49.0692 29.9102 49.5692 29.5508C50.077 29.1836 50.4637 28.668 50.7294 28.0039C51.0028 27.3398 51.1395 26.5547 51.1395 25.6484C51.1395 24.75 51.0028 23.9727 50.7294 23.3164C50.4637 22.6602 50.077 22.1523 49.5692 21.793C49.0692 21.4258 48.4677 21.2422 47.7645 21.2422C47.0458 21.2422 46.4286 21.4258 45.913 21.793C45.3973 22.1602 45.0028 22.6758 44.7294 23.3398C44.4637 23.9961 44.3309 24.7656 44.3309 25.6484C44.3309 26.5391 44.4677 27.3164 44.7411 27.9805C45.0145 28.6445 45.4091 29.1641 45.9247 29.5391C46.4403 29.9062 47.0536 30.0898 47.7645 30.0898ZM58.5998 14.5391V32H56.0803V14.5391H58.5998ZM66.9977 32.2812C65.7945 32.2812 64.7398 32.0039 63.8336 31.4492C62.9352 30.8945 62.2359 30.125 61.7359 29.1406C61.2359 28.1484 60.9859 27 60.9859 25.6953C60.9859 24.3828 61.2359 23.2305 61.7359 22.2383C62.2359 21.2383 62.9352 20.4609 63.8336 19.9062C64.7398 19.3516 65.7945 19.0742 66.9977 19.0742C68.2008 19.0742 69.2516 19.3516 70.15 19.9062C71.0562 20.4609 71.7594 21.2383 72.2594 22.2383C72.7594 23.2305 73.0094 24.3828 73.0094 25.6953C73.0094 27 72.7594 28.1484 72.2594 29.1406C71.7594 30.125 71.0562 30.8945 70.15 31.4492C69.2516 32.0039 68.2008 32.2812 66.9977 32.2812ZM66.9977 30.125C67.7477 30.125 68.3766 29.9336 68.8844 29.5508C69.4 29.168 69.7906 28.6445 70.0562 27.9805C70.3219 27.3086 70.4547 26.5469 70.4547 25.6953C70.4547 24.8281 70.3219 24.0625 70.0562 23.3984C69.7906 22.7266 69.4 22.1992 68.8844 21.8164C68.3766 21.4258 67.7477 21.2305 66.9977 21.2305C66.2555 21.2305 65.6266 21.4219 65.1109 21.8047C64.5953 22.1875 64.2047 22.7148 63.9391 23.3867C63.6812 24.0586 63.5523 24.8281 63.5523 25.6953C63.5523 26.5469 63.6812 27.3086 63.9391 27.9805C64.2047 28.6445 64.5953 29.168 65.1109 29.5508C65.6266 29.9336 66.2555 30.125 66.9977 30.125ZM80.7744 32.2812C79.5712 32.2812 78.5205 32.0039 77.622 31.4492C76.7236 30.8945 76.0244 30.1211 75.5244 29.1289C75.0244 28.1367 74.7744 26.9922 74.7744 25.6953C74.7744 24.3828 75.0244 23.2305 75.5244 22.2383C76.0244 21.2383 76.7236 20.4609 77.622 19.9062C78.5205 19.3516 79.5712 19.0742 80.7744 19.0742C81.4853 19.0742 82.1455 19.1758 82.7548 19.3789C83.372 19.582 83.9189 19.8711 84.3955 20.2461C84.872 20.6133 85.2666 21.0547 85.5791 21.5703C85.8916 22.0859 86.1025 22.6602 86.2119 23.293L83.7627 23.5625C83.6923 23.2109 83.5712 22.8945 83.3994 22.6133C83.2353 22.332 83.0283 22.0898 82.7783 21.8867C82.5283 21.6758 82.2353 21.5156 81.8994 21.4062C81.5712 21.2891 81.2002 21.2305 80.7861 21.2305C80.0361 21.2305 79.4033 21.4219 78.8877 21.8047C78.3798 22.1875 77.9931 22.7148 77.7275 23.3867C77.4697 24.0586 77.3408 24.8281 77.3408 25.6953C77.3408 26.5469 77.4697 27.3086 77.7275 27.9805C77.9931 28.6445 78.3798 29.168 78.8877 29.5508C79.4033 29.9336 80.0361 30.125 80.7861 30.125C81.2002 30.125 81.5712 30.0703 81.8994 29.9609C82.2353 29.8438 82.5244 29.6797 82.7666 29.4688C83.0166 29.2578 83.2236 29.0078 83.3877 28.7188C83.5595 28.4219 83.6884 28.0977 83.7744 27.7461L86.2353 28.0039C86.1259 28.6367 85.915 29.2148 85.6025 29.7383C85.29 30.2617 84.8916 30.7148 84.4072 31.0977C83.9306 31.4727 83.3837 31.7656 82.7666 31.9766C82.1494 32.1797 81.4853 32.2812 80.7744 32.2812ZM90.8597 27.7227V24.6992H91.1761L96.4144 19.2969H99.4964L93.5902 25.4375H93.18L90.8597 27.7227ZM88.5394 32V14.5391H91.0589V32H88.5394ZM96.7425 32L92.0902 26L93.8245 24.2305L99.848 32H96.7425ZM106.218 32.2812C105.015 32.2812 103.965 32.0039 103.066 31.4492C102.168 30.8945 101.468 30.1211 100.968 29.1289C100.468 28.1367 100.218 26.9922 100.218 25.6953C100.218 24.3828 100.468 23.2305 100.968 22.2383C101.468 21.2383 102.168 20.4609 103.066 19.9062C103.965 19.3516 105.015 19.0742 106.218 19.0742C106.929 19.0742 107.59 19.1758 108.199 19.3789C108.816 19.582 109.363 19.8711 109.84 20.2461C110.316 20.6133 110.711 21.0547 111.023 21.5703C111.336 22.0859 111.547 22.6602 111.656 23.293L109.207 23.5625C109.136 23.2109 109.015 22.8945 108.843 22.6133C108.679 22.332 108.472 22.0898 108.222 21.8867C107.972 21.6758 107.679 21.5156 107.343 21.4062C107.015 21.2891 106.644 21.2305 106.23 21.2305C105.48 21.2305 104.847 21.4219 104.332 21.8047C103.824 22.1875 103.437 22.7148 103.172 23.3867C102.914 24.0586 102.785 24.8281 102.785 25.6953C102.785 26.5469 102.914 27.3086 103.172 27.9805C103.437 28.6445 103.824 29.168 104.332 29.5508C104.847 29.9336 105.48 30.125 106.23 30.125C106.644 30.125 107.015 30.0703 107.343 29.9609C107.679 29.8438 107.968 29.6797 108.211 29.4688C108.461 29.2578 108.668 29.0078 108.832 28.7188C109.004 28.4219 109.132 28.0977 109.218 27.7461L111.679 28.0039C111.57 28.6367 111.359 29.2148 111.047 29.7383C110.734 30.2617 110.336 30.7148 109.851 31.0977C109.375 31.4727 108.828 31.7656 108.211 31.9766C107.593 32.1797 106.929 32.2812 106.218 32.2812ZM116.503 24.5938V32H113.983V14.5391H116.491V22.4375H115.999C116.39 21.2969 116.948 20.457 117.675 19.918C118.401 19.3711 119.276 19.0977 120.3 19.0977C121.167 19.0977 121.937 19.2852 122.608 19.6602C123.288 20.0273 123.819 20.5742 124.202 21.3008C124.585 22.0273 124.776 22.9336 124.776 24.0195V32H122.245V24.3242C122.245 23.3555 122.003 22.6133 121.519 22.0977C121.042 21.582 120.374 21.3242 119.515 21.3242C118.944 21.3242 118.433 21.4453 117.98 21.6875C117.526 21.9219 117.167 22.2812 116.901 22.7656C116.636 23.25 116.503 23.8594 116.503 24.5938ZM131.498 32.2344C130.67 32.2344 129.928 32.0898 129.272 31.8008C128.616 31.5117 128.096 31.082 127.713 30.5117C127.33 29.9336 127.139 29.2266 127.139 28.3906C127.139 27.6641 127.276 27.0703 127.549 26.6094C127.83 26.1484 128.205 25.7812 128.674 25.5078C129.151 25.2344 129.686 25.0312 130.28 24.8984C130.873 24.7578 131.483 24.6523 132.108 24.582C132.881 24.4805 133.498 24.4023 133.959 24.3477C134.428 24.2852 134.768 24.1875 134.979 24.0547C135.19 23.9219 135.295 23.707 135.295 23.4102V23.3164C135.295 22.8789 135.198 22.5 135.002 22.1797C134.807 21.8516 134.522 21.6016 134.147 21.4297C133.78 21.25 133.327 21.1602 132.788 21.1602C132.241 21.1602 131.764 21.2461 131.358 21.418C130.959 21.5898 130.635 21.8203 130.385 22.1094C130.143 22.3906 129.983 22.707 129.905 23.0586L127.479 22.7773C127.635 21.9883 127.955 21.3203 128.44 20.7734C128.932 20.2266 129.549 19.8125 130.291 19.5312C131.041 19.2422 131.873 19.0977 132.788 19.0977C133.444 19.0977 134.073 19.1797 134.674 19.3438C135.276 19.5078 135.811 19.7617 136.28 20.1055C136.748 20.4492 137.116 20.8945 137.381 21.4414C137.655 21.9883 137.791 22.6484 137.791 23.4219V32H135.33V30.2305H135.248C135.077 30.5664 134.83 30.8867 134.51 31.1914C134.198 31.4961 133.795 31.7461 133.303 31.9414C132.811 32.1367 132.209 32.2344 131.498 32.2344ZM132.026 30.2188C132.745 30.2188 133.346 30.0859 133.83 29.8203C134.315 29.5469 134.678 29.1914 134.92 28.7539C135.17 28.3086 135.295 27.832 135.295 27.3242V25.7773C135.209 25.8555 135.053 25.9297 134.827 26C134.608 26.0625 134.346 26.1211 134.041 26.1758C133.745 26.2305 133.436 26.2812 133.116 26.3281C132.803 26.375 132.51 26.418 132.237 26.457C131.776 26.5195 131.346 26.625 130.948 26.7734C130.549 26.9141 130.229 27.1172 129.987 27.3828C129.752 27.6484 129.635 27.9961 129.635 28.4258C129.635 28.8086 129.737 29.1328 129.94 29.3984C130.143 29.6641 130.42 29.8672 130.772 30.0078C131.131 30.1484 131.549 30.2188 132.026 30.2188ZM140.787 32V19.2969H143.306V32H140.787ZM142.041 17.2344C141.603 17.2344 141.228 17.0859 140.916 16.7891C140.611 16.4922 140.459 16.1328 140.459 15.7109C140.459 15.2812 140.611 14.9219 140.916 14.6328C141.228 14.3359 141.603 14.1875 142.041 14.1875C142.486 14.1875 142.861 14.3359 143.166 14.6328C143.478 14.9219 143.635 15.2812 143.635 15.7109C143.635 16.1328 143.478 16.4922 143.166 16.7891C142.861 17.0859 142.486 17.2344 142.041 17.2344ZM148.821 24.5938V32H146.302V19.2969H148.739L148.751 22.4375H148.318C148.708 21.2969 149.267 20.457 149.993 19.918C150.72 19.3711 151.595 19.0977 152.618 19.0977C153.485 19.0977 154.255 19.2852 154.927 19.6602C155.599 20.0273 156.126 20.5742 156.509 21.3008C156.892 22.0273 157.083 22.9336 157.083 24.0195V32H154.564V24.3242C154.564 23.3555 154.321 22.6133 153.837 22.0977C153.36 21.582 152.693 21.3242 151.833 21.3242C151.263 21.3242 150.751 21.4453 150.298 21.6875C149.845 21.9219 149.485 22.2812 149.22 22.7656C148.954 23.25 148.821 23.8594 148.821 24.5938Z" fill="#02AAFF"/>
</svg>
