<svg width="199" height="48" viewBox="0 0 199 48" fill="none" xmlns="http://www.w3.org/2000/svg">
<rect width="199" height="48" rx="24" fill="#1E1E1F"/>
<circle cx="24" cy="24" r="8" fill="#F36AFF"/>
<path d="M47.3823 32.2812C46.1792 32.2812 45.1284 32.0039 44.23 31.4492C43.3316 30.8945 42.6323 30.1211 42.1323 29.1289C41.6323 28.1367 41.3823 26.9922 41.3823 25.6953C41.3823 24.3828 41.6323 23.2305 42.1323 22.2383C42.6323 21.2383 43.3316 20.4609 44.23 19.9062C45.1284 19.3516 46.1792 19.0742 47.3823 19.0742C48.0933 19.0742 48.7534 19.1758 49.3628 19.3789C49.98 19.582 50.5269 19.8711 51.0034 20.2461C51.48 20.6133 51.8745 21.0547 52.187 21.5703C52.4995 22.0859 52.7105 22.6602 52.8198 23.293L50.3706 23.5625C50.3003 23.2109 50.1792 22.8945 50.0073 22.6133C49.8433 22.332 49.6363 22.0898 49.3863 21.8867C49.1363 21.6758 48.8433 21.5156 48.5073 21.4062C48.1792 21.2891 47.8081 21.2305 47.3941 21.2305C46.6441 21.2305 46.0113 21.4219 45.4956 21.8047C44.9878 22.1875 44.6011 22.7148 44.3355 23.3867C44.0777 24.0586 43.9488 24.8281 43.9488 25.6953C43.9488 26.5469 44.0777 27.3086 44.3355 27.9805C44.6011 28.6445 44.9878 29.168 45.4956 29.5508C46.0113 29.9336 46.6441 30.125 47.3941 30.125C47.8081 30.125 48.1792 30.0703 48.5073 29.9609C48.8433 29.8438 49.1323 29.6797 49.3745 29.4688C49.6245 29.2578 49.8316 29.0078 49.9956 28.7188C50.1675 28.4219 50.2964 28.0977 50.3823 27.7461L52.8433 28.0039C52.7339 28.6367 52.523 29.2148 52.2105 29.7383C51.898 30.2617 51.4995 30.7148 51.0152 31.0977C50.5386 31.4727 49.9917 31.7656 49.3745 31.9766C48.7573 32.1797 48.0933 32.2812 47.3823 32.2812ZM60.5497 32.2812C59.3466 32.2812 58.2919 32.0039 57.3856 31.4492C56.4872 30.8945 55.788 30.125 55.288 29.1406C54.788 28.1484 54.538 27 54.538 25.6953C54.538 24.3828 54.788 23.2305 55.288 22.2383C55.788 21.2383 56.4872 20.4609 57.3856 19.9062C58.2919 19.3516 59.3466 19.0742 60.5497 19.0742C61.7528 19.0742 62.8036 19.3516 63.702 19.9062C64.6083 20.4609 65.3114 21.2383 65.8114 22.2383C66.3114 23.2305 66.5614 24.3828 66.5614 25.6953C66.5614 27 66.3114 28.1484 65.8114 29.1406C65.3114 30.125 64.6083 30.8945 63.702 31.4492C62.8036 32.0039 61.7528 32.2812 60.5497 32.2812ZM60.5497 30.125C61.2997 30.125 61.9286 29.9336 62.4364 29.5508C62.952 29.168 63.3427 28.6445 63.6083 27.9805C63.8739 27.3086 64.0067 26.5469 64.0067 25.6953C64.0067 24.8281 63.8739 24.0625 63.6083 23.3984C63.3427 22.7266 62.952 22.1992 62.4364 21.8164C61.9286 21.4258 61.2997 21.2305 60.5497 21.2305C59.8075 21.2305 59.1786 21.4219 58.663 21.8047C58.1473 22.1875 57.7567 22.7148 57.4911 23.3867C57.2333 24.0586 57.1044 24.8281 57.1044 25.6953C57.1044 26.5469 57.2333 27.3086 57.4911 27.9805C57.7567 28.6445 58.1473 29.168 58.663 29.5508C59.1786 29.9336 59.8075 30.125 60.5497 30.125ZM68.9358 32V19.2969H71.3616L71.385 22.1094H71.1741C71.385 21.4297 71.6858 20.8672 72.0764 20.4219C72.4748 19.9688 72.9319 19.6328 73.4475 19.4141C73.9631 19.1875 74.5061 19.0742 75.0764 19.0742C76.0295 19.0742 76.8264 19.3594 77.467 19.9297C78.1077 20.4922 78.5178 21.2305 78.6975 22.1445H78.3342C78.5061 21.5195 78.7913 20.9766 79.1897 20.5156C79.5959 20.0547 80.0881 19.6992 80.6663 19.4492C81.2444 19.1992 81.8772 19.0742 82.5647 19.0742C83.3381 19.0742 84.0373 19.2422 84.6623 19.5781C85.2873 19.9062 85.7834 20.4023 86.1506 21.0664C86.5178 21.7305 86.7014 22.5586 86.7014 23.5508V32H84.1819V23.7852C84.1819 22.9023 83.9358 22.2656 83.4436 21.875C82.9514 21.4766 82.3694 21.2773 81.6975 21.2773C81.1584 21.2773 80.6897 21.3945 80.2913 21.6289C79.9006 21.8555 79.5959 22.1719 79.3772 22.5781C79.1663 22.9844 79.0608 23.4492 79.0608 23.9727V32H76.5764V23.6094C76.5764 22.9062 76.3498 22.3438 75.8967 21.9219C75.4436 21.4922 74.8655 21.2773 74.1623 21.2773C73.6858 21.2773 73.2405 21.3906 72.8264 21.6172C72.4123 21.8359 72.0803 22.168 71.8303 22.6133C71.5803 23.0508 71.4553 23.5898 71.4553 24.2305V32H68.9358ZM89.6852 36.8984V19.2969H92.1461V21.2422H92.2633C92.4742 20.8672 92.7477 20.5195 93.0836 20.1992C93.4273 19.8711 93.8453 19.6055 94.3375 19.4023C94.8297 19.1992 95.4078 19.0977 96.0719 19.0977C97.1344 19.0977 98.068 19.3672 98.8727 19.9062C99.6852 20.4375 100.322 21.1953 100.783 22.1797C101.244 23.1641 101.474 24.3242 101.474 25.6602C101.474 26.9961 101.244 28.1602 100.783 29.1523C100.33 30.1367 99.6969 30.8984 98.8844 31.4375C98.0797 31.9766 97.1383 32.2461 96.0602 32.2461C95.4117 32.2461 94.8453 32.1445 94.3609 31.9414C93.8766 31.7383 93.4625 31.4688 93.1188 31.1328C92.7828 30.7969 92.5055 30.4375 92.2867 30.0547H92.2047V36.8984H89.6852ZM95.5328 30.0898C96.2359 30.0898 96.8375 29.9102 97.3375 29.5508C97.8453 29.1836 98.232 28.668 98.4977 28.0039C98.7711 27.3398 98.9078 26.5547 98.9078 25.6484C98.9078 24.75 98.7711 23.9727 98.4977 23.3164C98.232 22.6602 97.8453 22.1523 97.3375 21.793C96.8375 21.4258 96.2359 21.2422 95.5328 21.2422C94.8141 21.2422 94.1969 21.4258 93.6813 21.793C93.1656 22.1602 92.7711 22.6758 92.4977 23.3398C92.232 23.9961 92.0992 24.7656 92.0992 25.6484C92.0992 26.5391 92.2359 27.3164 92.5094 27.9805C92.7828 28.6445 93.1773 29.1641 93.693 29.5391C94.2086 29.9062 94.8219 30.0898 95.5328 30.0898ZM109.298 32.2812C108.04 32.2812 106.958 32.0039 106.052 31.4492C105.153 30.8867 104.458 30.1133 103.966 29.1289C103.481 28.1367 103.239 26.9961 103.239 25.707C103.239 24.4102 103.485 23.2656 103.978 22.2734C104.47 21.2734 105.157 20.4922 106.04 19.9297C106.931 19.3594 107.958 19.0742 109.122 19.0742C109.942 19.0742 110.704 19.2148 111.407 19.4961C112.11 19.7773 112.724 20.1953 113.247 20.75C113.778 21.3047 114.192 21.9883 114.489 22.8008C114.786 23.6055 114.935 24.5352 114.935 25.5898V26.375H104.493V24.4766H113.622L112.485 25.0742C112.485 24.293 112.353 23.6094 112.087 23.0234C111.821 22.4375 111.438 21.9844 110.938 21.6641C110.446 21.3359 109.845 21.1719 109.134 21.1719C108.438 21.1719 107.837 21.3359 107.329 21.6641C106.821 21.9844 106.427 22.4297 106.145 23C105.872 23.5703 105.735 24.2227 105.735 24.957V26.1289C105.735 26.957 105.88 27.6758 106.169 28.2852C106.458 28.8945 106.872 29.3633 107.411 29.6914C107.95 30.0195 108.587 30.1836 109.321 30.1836C109.837 30.1836 110.298 30.1094 110.704 29.9609C111.11 29.8047 111.45 29.582 111.724 29.293C112.005 29.0039 112.212 28.6602 112.345 28.2617L114.735 28.5078C114.563 29.2578 114.224 29.9141 113.716 30.4766C113.216 31.0391 112.587 31.4805 111.829 31.8008C111.071 32.1211 110.228 32.2812 109.298 32.2812ZM123.063 19.2969V21.3711H115.926V19.2969H123.063ZM117.989 16.0391H120.508V28.6016C120.508 29.0938 120.61 29.4453 120.813 29.6562C121.016 29.8672 121.368 29.9727 121.868 29.9727C122.032 29.9727 122.223 29.9648 122.442 29.9492C122.668 29.9336 122.864 29.918 123.028 29.9023L123.227 31.9648C122.993 32.0039 122.723 32.0312 122.418 32.0469C122.121 32.0625 121.836 32.0703 121.563 32.0703C120.383 32.0703 119.493 31.8008 118.891 31.2617C118.289 30.7227 117.989 29.9297 117.989 28.8828V16.0391ZM125.191 32V19.2969H127.711V32H125.191ZM126.445 17.2344C126.007 17.2344 125.632 17.0859 125.32 16.7891C125.015 16.4922 124.863 16.1328 124.863 15.7109C124.863 15.2812 125.015 14.9219 125.32 14.6328C125.632 14.3359 126.007 14.1875 126.445 14.1875C126.89 14.1875 127.265 14.3359 127.57 14.6328C127.882 14.9219 128.039 15.2812 128.039 15.7109C128.039 16.1328 127.882 16.4922 127.57 16.7891C127.265 17.0859 126.89 17.2344 126.445 17.2344ZM136.624 19.2969V21.3711H129.487V19.2969H136.624ZM131.55 16.0391H134.069V28.6016C134.069 29.0938 134.171 29.4453 134.374 29.6562C134.577 29.8672 134.929 29.9727 135.429 29.9727C135.593 29.9727 135.784 29.9648 136.003 29.9492C136.23 29.9336 136.425 29.918 136.589 29.9023L136.788 31.9648C136.554 32.0039 136.284 32.0312 135.98 32.0469C135.683 32.0625 135.398 32.0703 135.124 32.0703C133.944 32.0703 133.054 31.8008 132.452 31.2617C131.851 30.7227 131.55 29.9297 131.55 28.8828V16.0391ZM138.752 32V19.2969H141.272V32H138.752ZM140.006 17.2344C139.569 17.2344 139.194 17.0859 138.881 16.7891C138.577 16.4922 138.424 16.1328 138.424 15.7109C138.424 15.2812 138.577 14.9219 138.881 14.6328C139.194 14.3359 139.569 14.1875 140.006 14.1875C140.452 14.1875 140.827 14.3359 141.131 14.6328C141.444 14.9219 141.6 15.2812 141.6 15.7109C141.6 16.1328 141.444 16.4922 141.131 16.7891C140.827 17.0859 140.452 17.2344 140.006 17.2344ZM149.67 32.2812C148.467 32.2812 147.412 32.0039 146.506 31.4492C145.607 30.8945 144.908 30.125 144.408 29.1406C143.908 28.1484 143.658 27 143.658 25.6953C143.658 24.3828 143.908 23.2305 144.408 22.2383C144.908 21.2383 145.607 20.4609 146.506 19.9062C147.412 19.3516 148.467 19.0742 149.67 19.0742C150.873 19.0742 151.924 19.3516 152.822 19.9062C153.728 20.4609 154.431 21.2383 154.931 22.2383C155.431 23.2305 155.681 24.3828 155.681 25.6953C155.681 27 155.431 28.1484 154.931 29.1406C154.431 30.125 153.728 30.8945 152.822 31.4492C151.924 32.0039 150.873 32.2812 149.67 32.2812ZM149.67 30.125C150.42 30.125 151.049 29.9336 151.556 29.5508C152.072 29.168 152.463 28.6445 152.728 27.9805C152.994 27.3086 153.127 26.5469 153.127 25.6953C153.127 24.8281 152.994 24.0625 152.728 23.3984C152.463 22.7266 152.072 22.1992 151.556 21.8164C151.049 21.4258 150.42 21.2305 149.67 21.2305C148.928 21.2305 148.299 21.4219 147.783 21.8047C147.267 22.1875 146.877 22.7148 146.611 23.3867C146.353 24.0586 146.224 24.8281 146.224 25.6953C146.224 26.5469 146.353 27.3086 146.611 27.9805C146.877 28.6445 147.267 29.168 147.783 29.5508C148.299 29.9336 148.928 30.125 149.67 30.125ZM160.575 24.5938V32H158.056V19.2969H160.493L160.505 22.4375H160.071C160.462 21.2969 161.021 20.457 161.747 19.918C162.474 19.3711 163.349 19.0977 164.372 19.0977C165.239 19.0977 166.009 19.2852 166.681 19.6602C167.353 20.0273 167.88 20.5742 168.263 21.3008C168.646 22.0273 168.837 22.9336 168.837 24.0195V32H166.318V24.3242C166.318 23.3555 166.075 22.6133 165.591 22.0977C165.114 21.582 164.446 21.3242 163.587 21.3242C163.017 21.3242 162.505 21.4453 162.052 21.6875C161.599 21.9219 161.239 22.2812 160.974 22.7656C160.708 23.25 160.575 23.8594 160.575 24.5938ZM176.461 32.2812C175.508 32.2812 174.657 32.1367 173.907 31.8477C173.165 31.5586 172.559 31.1289 172.09 30.5586C171.622 29.9805 171.336 29.2734 171.235 28.4375L173.672 28.2148C173.79 28.8867 174.082 29.3984 174.551 29.75C175.028 30.0938 175.657 30.2656 176.438 30.2656C177.243 30.2656 177.879 30.1016 178.348 29.7734C178.825 29.4375 179.063 29.0234 179.063 28.5312C179.063 28.1094 178.903 27.7695 178.582 27.5117C178.27 27.2461 177.825 27.0508 177.247 26.9258L175.125 26.4453C173.946 26.1797 173.055 25.75 172.454 25.1562C171.86 24.5625 171.563 23.8008 171.563 22.8711C171.563 22.1211 171.766 21.4609 172.172 20.8906C172.586 20.3203 173.161 19.875 173.895 19.5547C174.629 19.2344 175.477 19.0742 176.438 19.0742C177.375 19.0742 178.192 19.2266 178.887 19.5312C179.59 19.8359 180.149 20.2656 180.563 20.8203C180.985 21.375 181.247 22.0273 181.348 22.7773L179.004 23.0117C178.926 22.4648 178.672 22.0039 178.243 21.6289C177.813 21.2539 177.223 21.0664 176.473 21.0664C175.762 21.0664 175.184 21.2305 174.739 21.5586C174.301 21.8867 174.082 22.293 174.082 22.7773C174.082 23.1992 174.243 23.543 174.563 23.8086C174.883 24.0742 175.356 24.2773 175.981 24.418L178.079 24.8867C179.297 25.1602 180.192 25.582 180.762 26.1523C181.34 26.7148 181.629 27.4492 181.629 28.3555C181.629 29.1445 181.407 29.8359 180.961 30.4297C180.524 31.0156 179.915 31.4727 179.133 31.8008C178.352 32.1211 177.461 32.2812 176.461 32.2812Z" fill="#F36AFF"/>
</svg>
