<svg width="231" height="48" viewBox="0 0 231 48" fill="none" xmlns="http://www.w3.org/2000/svg">
<rect width="231" height="48" rx="24" fill="#1E1E1F"/>
<circle cx="24" cy="25" r="8" fill="#966DFF"/>
<path d="M46.4695 32.2461C45.407 32.2461 44.4656 31.9766 43.6453 31.4375C42.8328 30.8984 42.1961 30.1367 41.7352 29.1523C41.282 28.1602 41.0555 26.9961 41.0555 25.6602C41.0555 24.3242 41.2859 23.1641 41.7469 22.1797C42.2078 21.1953 42.8445 20.4375 43.657 19.9062C44.4773 19.3672 45.4148 19.0977 46.4695 19.0977C47.1258 19.0977 47.6961 19.1992 48.1805 19.4023C48.6727 19.6055 49.0867 19.8711 49.4227 20.1992C49.7664 20.5195 50.0437 20.8672 50.2547 21.2422H50.325V14.5391H52.8562V32H50.3836V30.043H50.2781C50.0594 30.4336 49.7742 30.7969 49.4227 31.1328C49.0789 31.4688 48.6648 31.7383 48.1805 31.9414C47.6961 32.1445 47.1258 32.2461 46.4695 32.2461ZM47.0086 30.0898C47.7195 30.0898 48.3328 29.9062 48.8484 29.5391C49.3641 29.1641 49.7586 28.6445 50.032 27.9805C50.3055 27.3164 50.4422 26.5391 50.4422 25.6484C50.4422 24.7656 50.3055 23.9961 50.032 23.3398C49.7586 22.6758 49.3641 22.1602 48.8484 21.793C48.3406 21.4258 47.7273 21.2422 47.0086 21.2422C46.3055 21.2422 45.7 21.4258 45.1922 21.793C44.6844 22.1523 44.2937 22.6602 44.0203 23.3164C43.7547 23.9727 43.6219 24.75 43.6219 25.6484C43.6219 26.5547 43.7547 27.3398 44.0203 28.0039C44.2937 28.668 44.6844 29.1836 45.1922 29.5508C45.7 29.9102 46.3055 30.0898 47.0086 30.0898ZM61.2775 32.2812C60.0197 32.2812 58.9377 32.0039 58.0314 31.4492C57.133 30.8867 56.4377 30.1133 55.9455 29.1289C55.4611 28.1367 55.2189 26.9961 55.2189 25.707C55.2189 24.4102 55.465 23.2656 55.9572 22.2734C56.4494 21.2734 57.1369 20.4922 58.0197 19.9297C58.9103 19.3594 59.9377 19.0742 61.1017 19.0742C61.922 19.0742 62.6837 19.2148 63.3869 19.4961C64.09 19.7773 64.7033 20.1953 65.2267 20.75C65.758 21.3047 66.172 21.9883 66.4689 22.8008C66.7658 23.6055 66.9142 24.5352 66.9142 25.5898V26.375H56.4728V24.4766H65.6017L64.465 25.0742C64.465 24.293 64.3322 23.6094 64.0666 23.0234C63.8009 22.4375 63.4181 21.9844 62.9181 21.6641C62.4259 21.3359 61.8244 21.1719 61.1134 21.1719C60.4181 21.1719 59.8166 21.3359 59.3087 21.6641C58.8009 21.9844 58.4064 22.4297 58.1252 23C57.8517 23.5703 57.715 24.2227 57.715 24.957V26.1289C57.715 26.957 57.8595 27.6758 58.1486 28.2852C58.4377 28.8945 58.8517 29.3633 59.3908 29.6914C59.9298 30.0195 60.5666 30.1836 61.3009 30.1836C61.8166 30.1836 62.2775 30.1094 62.6837 29.9609C63.09 29.8047 63.4298 29.582 63.7033 29.293C63.9845 29.0039 64.1916 28.6602 64.3244 28.2617L66.715 28.5078C66.5431 29.2578 66.2033 29.9141 65.6955 30.4766C65.1955 31.0391 64.5666 31.4805 63.8087 31.8008C63.0509 32.1211 62.2072 32.2812 61.2775 32.2812ZM74.6323 32.2812C73.4292 32.2812 72.3784 32.0039 71.48 31.4492C70.5816 30.8945 69.8823 30.1211 69.3823 29.1289C68.8823 28.1367 68.6323 26.9922 68.6323 25.6953C68.6323 24.3828 68.8823 23.2305 69.3823 22.2383C69.8823 21.2383 70.5816 20.4609 71.48 19.9062C72.3784 19.3516 73.4292 19.0742 74.6323 19.0742C75.3433 19.0742 76.0034 19.1758 76.6128 19.3789C77.23 19.582 77.7769 19.8711 78.2534 20.2461C78.73 20.6133 79.1245 21.0547 79.437 21.5703C79.7495 22.0859 79.9605 22.6602 80.0698 23.293L77.6206 23.5625C77.5503 23.2109 77.4292 22.8945 77.2573 22.6133C77.0933 22.332 76.8862 22.0898 76.6362 21.8867C76.3862 21.6758 76.0933 21.5156 75.7573 21.4062C75.4292 21.2891 75.0581 21.2305 74.6441 21.2305C73.8941 21.2305 73.2612 21.4219 72.7456 21.8047C72.2378 22.1875 71.8511 22.7148 71.5855 23.3867C71.3277 24.0586 71.1987 24.8281 71.1987 25.6953C71.1987 26.5469 71.3277 27.3086 71.5855 27.9805C71.8511 28.6445 72.2378 29.168 72.7456 29.5508C73.2612 29.9336 73.8941 30.125 74.6441 30.125C75.0581 30.125 75.4292 30.0703 75.7573 29.9609C76.0933 29.8438 76.3823 29.6797 76.6245 29.4688C76.8745 29.2578 77.0816 29.0078 77.2456 28.7188C77.4175 28.4219 77.5464 28.0977 77.6323 27.7461L80.0933 28.0039C79.9839 28.6367 79.773 29.2148 79.4605 29.7383C79.148 30.2617 78.7495 30.7148 78.2652 31.0977C77.7886 31.4727 77.2417 31.7656 76.6245 31.9766C76.0073 32.1797 75.3433 32.2812 74.6323 32.2812ZM87.8466 32.2812C86.5887 32.2812 85.5067 32.0039 84.6005 31.4492C83.702 30.8867 83.0067 30.1133 82.5145 29.1289C82.0302 28.1367 81.788 26.9961 81.788 25.707C81.788 24.4102 82.0341 23.2656 82.5262 22.2734C83.0184 21.2734 83.7059 20.4922 84.5887 19.9297C85.4794 19.3594 86.5067 19.0742 87.6708 19.0742C88.4911 19.0742 89.2528 19.2148 89.9559 19.4961C90.6591 19.7773 91.2723 20.1953 91.7958 20.75C92.327 21.3047 92.7411 21.9883 93.038 22.8008C93.3348 23.6055 93.4833 24.5352 93.4833 25.5898V26.375H83.0419V24.4766H92.1708L91.0341 25.0742C91.0341 24.293 90.9012 23.6094 90.6356 23.0234C90.37 22.4375 89.9872 21.9844 89.4872 21.6641C88.995 21.3359 88.3934 21.1719 87.6825 21.1719C86.9872 21.1719 86.3856 21.3359 85.8778 21.6641C85.37 21.9844 84.9755 22.4297 84.6942 23C84.4208 23.5703 84.2841 24.2227 84.2841 24.957V26.1289C84.2841 26.957 84.4286 27.6758 84.7177 28.2852C85.0067 28.8945 85.4208 29.3633 85.9598 29.6914C86.4989 30.0195 87.1356 30.1836 87.87 30.1836C88.3856 30.1836 88.8466 30.1094 89.2528 29.9609C89.6591 29.8047 89.9989 29.582 90.2723 29.293C90.5536 29.0039 90.7606 28.6602 90.8934 28.2617L93.2841 28.5078C93.1122 29.2578 92.7723 29.9141 92.2645 30.4766C91.7645 31.0391 91.1356 31.4805 90.3778 31.8008C89.62 32.1211 88.7762 32.2812 87.8466 32.2812ZM98.3303 24.5938V32H95.8108V19.2969H98.2483L98.26 22.4375H97.8264C98.217 21.2969 98.7756 20.457 99.5022 19.918C100.229 19.3711 101.104 19.0977 102.127 19.0977C102.994 19.0977 103.764 19.2852 104.436 19.6602C105.108 20.0273 105.635 20.5742 106.018 21.3008C106.401 22.0273 106.592 22.9336 106.592 24.0195V32H104.072V24.3242C104.072 23.3555 103.83 22.6133 103.346 22.0977C102.869 21.582 102.201 21.3242 101.342 21.3242C100.772 21.3242 100.26 21.4453 99.8069 21.6875C99.3537 21.9219 98.9944 22.2812 98.7287 22.7656C98.4631 23.25 98.3303 23.8594 98.3303 24.5938ZM115.377 19.2969V21.3711H108.24V19.2969H115.377ZM110.302 16.0391H112.822V28.6016C112.822 29.0938 112.923 29.4453 113.127 29.6562C113.33 29.8672 113.681 29.9727 114.181 29.9727C114.345 29.9727 114.537 29.9648 114.755 29.9492C114.982 29.9336 115.177 29.918 115.341 29.9023L115.541 31.9648C115.306 32.0039 115.037 32.0312 114.732 32.0469C114.435 32.0625 114.15 32.0703 113.877 32.0703C112.697 32.0703 111.806 31.8008 111.205 31.2617C110.603 30.7227 110.302 29.9297 110.302 28.8828V16.0391ZM117.505 32V19.2969H119.931V21.3477H120.013C120.247 20.6602 120.634 20.1211 121.173 19.7305C121.712 19.332 122.372 19.1328 123.153 19.1328C123.333 19.1328 123.513 19.1406 123.692 19.1562C123.872 19.1641 124.02 19.1758 124.138 19.1914V21.5703C124.044 21.5469 123.868 21.5195 123.61 21.4883C123.36 21.457 123.095 21.4414 122.813 21.4414C122.29 21.4414 121.817 21.5586 121.395 21.793C120.974 22.0195 120.638 22.3555 120.388 22.8008C120.145 23.2383 120.024 23.7734 120.024 24.4062V32H117.505ZM129.559 32.2344C128.731 32.2344 127.989 32.0898 127.332 31.8008C126.676 31.5117 126.157 31.082 125.774 30.5117C125.391 29.9336 125.2 29.2266 125.2 28.3906C125.2 27.6641 125.336 27.0703 125.61 26.6094C125.891 26.1484 126.266 25.7812 126.735 25.5078C127.211 25.2344 127.746 25.0312 128.34 24.8984C128.934 24.7578 129.543 24.6523 130.168 24.582C130.942 24.4805 131.559 24.4023 132.02 24.3477C132.489 24.2852 132.828 24.1875 133.039 24.0547C133.25 23.9219 133.356 23.707 133.356 23.4102V23.3164C133.356 22.8789 133.258 22.5 133.063 22.1797C132.868 21.8516 132.582 21.6016 132.207 21.4297C131.84 21.25 131.387 21.1602 130.848 21.1602C130.301 21.1602 129.825 21.2461 129.418 21.418C129.02 21.5898 128.696 21.8203 128.446 22.1094C128.203 22.3906 128.043 22.707 127.965 23.0586L125.539 22.7773C125.696 21.9883 126.016 21.3203 126.5 20.7734C126.993 20.2266 127.61 19.8125 128.352 19.5312C129.102 19.2422 129.934 19.0977 130.848 19.0977C131.504 19.0977 132.133 19.1797 132.735 19.3438C133.336 19.5078 133.871 19.7617 134.34 20.1055C134.809 20.4492 135.176 20.8945 135.442 21.4414C135.715 21.9883 135.852 22.6484 135.852 23.4219V32H133.391V30.2305H133.309C133.137 30.5664 132.891 30.8867 132.571 31.1914C132.258 31.4961 131.856 31.7461 131.364 31.9414C130.871 32.1367 130.27 32.2344 129.559 32.2344ZM130.086 30.2188C130.805 30.2188 131.407 30.0859 131.891 29.8203C132.375 29.5469 132.739 29.1914 132.981 28.7539C133.231 28.3086 133.356 27.832 133.356 27.3242V25.7773C133.27 25.8555 133.114 25.9297 132.887 26C132.668 26.0625 132.407 26.1211 132.102 26.1758C131.805 26.2305 131.496 26.2812 131.176 26.3281C130.864 26.375 130.571 26.418 130.297 26.457C129.836 26.5195 129.407 26.625 129.008 26.7734C128.61 26.9141 128.289 27.1172 128.047 27.3828C127.813 27.6484 127.696 27.9961 127.696 28.4258C127.696 28.8086 127.797 29.1328 128 29.3984C128.203 29.6641 128.481 29.8672 128.832 30.0078C129.192 30.1484 129.61 30.2188 130.086 30.2188ZM141.367 14.5391V32H138.847V14.5391H141.367ZM144.362 32V19.2969H146.882V32H144.362ZM145.616 17.2344C145.179 17.2344 144.804 17.0859 144.491 16.7891C144.187 16.4922 144.034 16.1328 144.034 15.7109C144.034 15.2812 144.187 14.9219 144.491 14.6328C144.804 14.3359 145.179 14.1875 145.616 14.1875C146.062 14.1875 146.437 14.3359 146.741 14.6328C147.054 14.9219 147.21 15.2812 147.21 15.7109C147.21 16.1328 147.054 16.4922 146.741 16.7891C146.437 17.0859 146.062 17.2344 145.616 17.2344ZM149.596 32V30.2305L156.37 21.5469V21.4648H149.69V19.2969H159.475V21.1836L152.854 29.7617V29.832H159.604V32H149.596ZM166.033 32.2344C165.205 32.2344 164.463 32.0898 163.806 31.8008C163.15 31.5117 162.631 31.082 162.248 30.5117C161.865 29.9336 161.674 29.2266 161.674 28.3906C161.674 27.6641 161.81 27.0703 162.084 26.6094C162.365 26.1484 162.74 25.7812 163.209 25.5078C163.685 25.2344 164.22 25.0312 164.814 24.8984C165.408 24.7578 166.017 24.6523 166.642 24.582C167.416 24.4805 168.033 24.4023 168.494 24.3477C168.963 24.2852 169.302 24.1875 169.513 24.0547C169.724 23.9219 169.83 23.707 169.83 23.4102V23.3164C169.83 22.8789 169.732 22.5 169.537 22.1797C169.342 21.8516 169.056 21.6016 168.681 21.4297C168.314 21.25 167.861 21.1602 167.322 21.1602C166.775 21.1602 166.299 21.2461 165.892 21.418C165.494 21.5898 165.17 21.8203 164.92 22.1094C164.677 22.3906 164.517 22.707 164.439 23.0586L162.013 22.7773C162.17 21.9883 162.49 21.3203 162.974 20.7734C163.467 20.2266 164.084 19.8125 164.826 19.5312C165.576 19.2422 166.408 19.0977 167.322 19.0977C167.978 19.0977 168.607 19.1797 169.209 19.3438C169.81 19.5078 170.345 19.7617 170.814 20.1055C171.283 20.4492 171.65 20.8945 171.916 21.4414C172.189 21.9883 172.326 22.6484 172.326 23.4219V32H169.865V30.2305H169.783C169.611 30.5664 169.365 30.8867 169.045 31.1914C168.732 31.4961 168.33 31.7461 167.838 31.9414C167.345 32.1367 166.744 32.2344 166.033 32.2344ZM166.56 30.2188C167.279 30.2188 167.881 30.0859 168.365 29.8203C168.849 29.5469 169.213 29.1914 169.455 28.7539C169.705 28.3086 169.83 27.832 169.83 27.3242V25.7773C169.744 25.8555 169.588 25.9297 169.361 26C169.142 26.0625 168.881 26.1211 168.576 26.1758C168.279 26.2305 167.97 26.2812 167.65 26.3281C167.338 26.375 167.045 26.418 166.771 26.457C166.31 26.5195 165.881 26.625 165.482 26.7734C165.084 26.9141 164.763 27.1172 164.521 27.3828C164.287 27.6484 164.17 27.9961 164.17 28.4258C164.17 28.8086 164.271 29.1328 164.474 29.3984C164.677 29.6641 164.955 29.8672 165.306 30.0078C165.666 30.1484 166.084 30.2188 166.56 30.2188ZM181.122 19.2969V21.3711H173.985V19.2969H181.122ZM176.048 16.0391H178.567V28.6016C178.567 29.0938 178.669 29.4453 178.872 29.6562C179.075 29.8672 179.427 29.9727 179.927 29.9727C180.091 29.9727 180.282 29.9648 180.501 29.9492C180.728 29.9336 180.923 29.918 181.087 29.9023L181.286 31.9648C181.052 32.0039 180.782 32.0312 180.478 32.0469C180.181 32.0625 179.896 32.0703 179.622 32.0703C178.442 32.0703 177.552 31.8008 176.95 31.2617C176.349 30.7227 176.048 29.9297 176.048 28.8828V16.0391ZM183.25 32V19.2969H185.77V32H183.25ZM184.504 17.2344C184.067 17.2344 183.692 17.0859 183.379 16.7891C183.075 16.4922 182.922 16.1328 182.922 15.7109C182.922 15.2812 183.075 14.9219 183.379 14.6328C183.692 14.3359 184.067 14.1875 184.504 14.1875C184.95 14.1875 185.325 14.3359 185.629 14.6328C185.942 14.9219 186.098 15.2812 186.098 15.7109C186.098 16.1328 185.942 16.4922 185.629 16.7891C185.325 17.0859 184.95 17.2344 184.504 17.2344ZM194.168 32.2812C192.965 32.2812 191.91 32.0039 191.004 31.4492C190.105 30.8945 189.406 30.125 188.906 29.1406C188.406 28.1484 188.156 27 188.156 25.6953C188.156 24.3828 188.406 23.2305 188.906 22.2383C189.406 21.2383 190.105 20.4609 191.004 19.9062C191.91 19.3516 192.965 19.0742 194.168 19.0742C195.371 19.0742 196.422 19.3516 197.32 19.9062C198.226 20.4609 198.93 21.2383 199.43 22.2383C199.93 23.2305 200.18 24.3828 200.18 25.6953C200.18 27 199.93 28.1484 199.43 29.1406C198.93 30.125 198.226 30.8945 197.32 31.4492C196.422 32.0039 195.371 32.2812 194.168 32.2812ZM194.168 30.125C194.918 30.125 195.547 29.9336 196.055 29.5508C196.57 29.168 196.961 28.6445 197.226 27.9805C197.492 27.3086 197.625 26.5469 197.625 25.6953C197.625 24.8281 197.492 24.0625 197.226 23.3984C196.961 22.7266 196.57 22.1992 196.055 21.8164C195.547 21.4258 194.918 21.2305 194.168 21.2305C193.426 21.2305 192.797 21.4219 192.281 21.8047C191.765 22.1875 191.375 22.7148 191.109 23.3867C190.851 24.0586 190.723 24.8281 190.723 25.6953C190.723 26.5469 190.851 27.3086 191.109 27.9805C191.375 28.6445 191.765 29.168 192.281 29.5508C192.797 29.9336 193.426 30.125 194.168 30.125ZM205.073 24.5938V32H202.554V19.2969H204.991L205.003 22.4375H204.57C204.96 21.2969 205.519 20.457 206.245 19.918C206.972 19.3711 207.847 19.0977 208.87 19.0977C209.738 19.0977 210.507 19.2852 211.179 19.6602C211.851 20.0273 212.378 20.5742 212.761 21.3008C213.144 22.0273 213.335 22.9336 213.335 24.0195V32H210.816V24.3242C210.816 23.3555 210.573 22.6133 210.089 22.0977C209.613 21.582 208.945 21.3242 208.085 21.3242C207.515 21.3242 207.003 21.4453 206.55 21.6875C206.097 21.9219 205.738 22.2812 205.472 22.7656C205.206 23.25 205.073 23.8594 205.073 24.5938Z" fill="#966DFF"/>
</svg>
