<svg width="126" height="48" viewBox="0 0 126 48" fill="none" xmlns="http://www.w3.org/2000/svg">
<rect width="126" height="48" rx="24" fill="#1E1E1F"/>
<circle cx="24" cy="25" r="8" fill="white"/>
<path d="M47.3375 37.1094C46.3219 37.1094 45.4352 36.9688 44.6773 36.6875C43.9195 36.4062 43.3023 36.0117 42.8258 35.5039C42.357 34.9961 42.0367 34.3984 41.8648 33.7109L44.1969 33.2656C44.3219 33.6016 44.5172 33.9023 44.7828 34.168C45.0563 34.4414 45.4 34.6602 45.8141 34.8242C46.2359 34.9883 46.7398 35.0703 47.3258 35.0703C48.3258 35.0703 49.1188 34.8164 49.7047 34.3086C50.2984 33.8008 50.5953 33.0469 50.5953 32.0469V29.8672H50.4898C50.2633 30.2578 49.9781 30.6172 49.6344 30.9453C49.2984 31.2656 48.8883 31.5234 48.4039 31.7188C47.9273 31.9062 47.3609 32 46.7047 32C45.65 32 44.7125 31.7422 43.8922 31.2266C43.0797 30.7109 42.443 29.9766 41.982 29.0234C41.5211 28.0625 41.2906 26.9258 41.2906 25.6133C41.2906 24.293 41.5211 23.1445 41.982 22.168C42.443 21.1914 43.0797 20.4375 43.8922 19.9062C44.7125 19.3672 45.6539 19.0977 46.7164 19.0977C47.3727 19.0977 47.943 19.1992 48.4273 19.4023C48.9195 19.5977 49.3375 19.8633 49.6813 20.1992C50.0328 20.5352 50.318 20.9023 50.5367 21.3008H50.6305V19.2969H53.1031V32C53.1031 33.1953 52.8453 34.168 52.3297 34.918C51.8219 35.6758 51.1305 36.2305 50.2555 36.582C49.3805 36.9336 48.4078 37.1094 47.3375 37.1094ZM47.2438 29.8672C47.9625 29.8672 48.5758 29.6953 49.0836 29.3516C49.5992 29 49.9938 28.5039 50.2672 27.8633C50.5406 27.2227 50.6773 26.4648 50.6773 25.5898C50.6773 24.7148 50.5406 23.9531 50.2672 23.3047C50.0016 22.6484 49.6109 22.1406 49.0953 21.7812C48.5797 21.4219 47.9625 21.2422 47.2438 21.2422C46.5406 21.2422 45.9352 21.4219 45.4273 21.7812C44.9195 22.1328 44.5289 22.6328 44.2555 23.2812C43.9898 23.9297 43.857 24.6992 43.857 25.5898C43.857 26.4805 43.9938 27.2461 44.2672 27.8867C44.5406 28.5273 44.9313 29.0195 45.4391 29.3633C45.9469 29.6992 46.5484 29.8672 47.2438 29.8672ZM56.0869 32V19.2969H58.5127V21.3477H58.5947C58.8291 20.6602 59.2158 20.1211 59.7548 19.7305C60.2939 19.332 60.9541 19.1328 61.7353 19.1328C61.915 19.1328 62.0947 19.1406 62.2744 19.1562C62.4541 19.1641 62.6025 19.1758 62.7197 19.1914V21.5703C62.6259 21.5469 62.4502 21.5195 62.1923 21.4883C61.9423 21.457 61.6767 21.4414 61.3955 21.4414C60.872 21.4414 60.3994 21.5586 59.9775 21.793C59.5556 22.0195 59.2197 22.3555 58.9697 22.8008C58.7275 23.2383 58.6064 23.7734 58.6064 24.4062V32H56.0869ZM68.1409 32.2344C67.3128 32.2344 66.5706 32.0898 65.9144 31.8008C65.2581 31.5117 64.7386 31.082 64.3558 30.5117C63.973 29.9336 63.7816 29.2266 63.7816 28.3906C63.7816 27.6641 63.9183 27.0703 64.1917 26.6094C64.473 26.1484 64.848 25.7812 65.3167 25.5078C65.7933 25.2344 66.3284 25.0312 66.9222 24.8984C67.5159 24.7578 68.1253 24.6523 68.7503 24.582C69.5238 24.4805 70.1409 24.4023 70.6019 24.3477C71.0706 24.2852 71.4105 24.1875 71.6214 24.0547C71.8323 23.9219 71.9378 23.707 71.9378 23.4102V23.3164C71.9378 22.8789 71.8402 22.5 71.6448 22.1797C71.4495 21.8516 71.1644 21.6016 70.7894 21.4297C70.4222 21.25 69.9691 21.1602 69.43 21.1602C68.8831 21.1602 68.4066 21.2461 68.0003 21.418C67.6019 21.5898 67.2777 21.8203 67.0277 22.1094C66.7855 22.3906 66.6253 22.707 66.5472 23.0586L64.1214 22.7773C64.2777 21.9883 64.598 21.3203 65.0823 20.7734C65.5745 20.2266 66.1917 19.8125 66.9339 19.5312C67.6839 19.2422 68.5159 19.0977 69.43 19.0977C70.0863 19.0977 70.7152 19.1797 71.3167 19.3438C71.9183 19.5078 72.4534 19.7617 72.9222 20.1055C73.3909 20.4492 73.7581 20.8945 74.0238 21.4414C74.2972 21.9883 74.4339 22.6484 74.4339 23.4219V32H71.973V30.2305H71.8909C71.7191 30.5664 71.473 30.8867 71.1527 31.1914C70.8402 31.4961 70.4378 31.7461 69.9456 31.9414C69.4534 32.1367 68.8519 32.2344 68.1409 32.2344ZM68.6683 30.2188C69.387 30.2188 69.9886 30.0859 70.473 29.8203C70.9573 29.5469 71.3206 29.1914 71.5628 28.7539C71.8128 28.3086 71.9378 27.832 71.9378 27.3242V25.7773C71.8519 25.8555 71.6956 25.9297 71.4691 26C71.2503 26.0625 70.9886 26.1211 70.6839 26.1758C70.387 26.2305 70.0784 26.2812 69.7581 26.3281C69.4456 26.375 69.1527 26.418 68.8792 26.457C68.4183 26.5195 67.9886 26.625 67.5902 26.7734C67.1917 26.9141 66.8714 27.1172 66.6292 27.3828C66.3948 27.6484 66.2777 27.9961 66.2777 28.4258C66.2777 28.8086 66.3792 29.1328 66.5823 29.3984C66.7855 29.6641 67.0628 29.8672 67.4144 30.0078C67.7738 30.1484 68.1917 30.2188 68.6683 30.2188ZM79.9489 24.5938V32H77.4294V19.2969H79.8669L79.8786 22.4375H79.445C79.8356 21.2969 80.3942 20.457 81.1208 19.918C81.8473 19.3711 82.7223 19.0977 83.7458 19.0977C84.613 19.0977 85.3825 19.2852 86.0544 19.6602C86.7262 20.0273 87.2536 20.5742 87.6364 21.3008C88.0192 22.0273 88.2106 22.9336 88.2106 24.0195V32H85.6911V24.3242C85.6911 23.3555 85.4489 22.6133 84.9645 22.0977C84.488 21.582 83.82 21.3242 82.9606 21.3242C82.3903 21.3242 81.8786 21.4453 81.4255 21.6875C80.9723 21.9219 80.613 22.2812 80.3473 22.7656C80.0817 23.25 79.9489 23.8594 79.9489 24.5938ZM96.9952 19.2969V21.3711H89.8584V19.2969H96.9952ZM91.9209 16.0391H94.4405V28.6016C94.4405 29.0938 94.542 29.4453 94.7452 29.6562C94.9483 29.8672 95.2998 29.9727 95.7998 29.9727C95.9639 29.9727 96.1553 29.9648 96.3741 29.9492C96.6006 29.9336 96.7959 29.918 96.96 29.9023L97.1592 31.9648C96.9248 32.0039 96.6553 32.0312 96.3506 32.0469C96.0538 32.0625 95.7686 32.0703 95.4952 32.0703C94.3155 32.0703 93.4248 31.8008 92.8233 31.2617C92.2217 30.7227 91.9209 29.9297 91.9209 28.8828V16.0391ZM103.553 32.2812C102.6 32.2812 101.748 32.1367 100.998 31.8477C100.256 31.5586 99.6508 31.1289 99.182 30.5586C98.7133 29.9805 98.4281 29.2734 98.3266 28.4375L100.764 28.2148C100.881 28.8867 101.174 29.3984 101.643 29.75C102.12 30.0938 102.748 30.2656 103.53 30.2656C104.334 30.2656 104.971 30.1016 105.44 29.7734C105.916 29.4375 106.155 29.0234 106.155 28.5312C106.155 28.1094 105.995 27.7695 105.674 27.5117C105.362 27.2461 104.916 27.0508 104.338 26.9258L102.217 26.4453C101.038 26.1797 100.147 25.75 99.5453 25.1562C98.9516 24.5625 98.6547 23.8008 98.6547 22.8711C98.6547 22.1211 98.8578 21.4609 99.2641 20.8906C99.6781 20.3203 100.252 19.875 100.987 19.5547C101.721 19.2344 102.569 19.0742 103.53 19.0742C104.467 19.0742 105.284 19.2266 105.979 19.5312C106.682 19.8359 107.241 20.2656 107.655 20.8203C108.077 21.375 108.338 22.0273 108.44 22.7773L106.096 23.0117C106.018 22.4648 105.764 22.0039 105.334 21.6289C104.905 21.2539 104.315 21.0664 103.565 21.0664C102.854 21.0664 102.276 21.2305 101.83 21.5586C101.393 21.8867 101.174 22.293 101.174 22.7773C101.174 23.1992 101.334 23.543 101.655 23.8086C101.975 24.0742 102.448 24.2773 103.073 24.418L105.17 24.8867C106.389 25.1602 107.284 25.582 107.854 26.1523C108.432 26.7148 108.721 27.4492 108.721 28.3555C108.721 29.1445 108.498 29.8359 108.053 30.4297C107.616 31.0156 107.006 31.4727 106.225 31.8008C105.444 32.1211 104.553 32.2812 103.553 32.2812Z" fill="white"/>
</svg>
