<svg width="142" height="48" viewBox="0 0 142 48" fill="none" xmlns="http://www.w3.org/2000/svg">
<rect width="142" height="48" rx="24" fill="#1E1E1F"/>
<circle cx="24" cy="25" r="8" fill="white"/>
<path d="M46.662 32.2812C45.7089 32.2812 44.8573 32.1367 44.1073 31.8477C43.3652 31.5586 42.7597 31.1289 42.2909 30.5586C41.8222 29.9805 41.537 29.2734 41.4355 28.4375L43.873 28.2148C43.9902 28.8867 44.2831 29.3984 44.7519 29.75C45.2284 30.0938 45.8573 30.2656 46.6386 30.2656C47.4433 30.2656 48.08 30.1016 48.5488 29.7734C49.0253 29.4375 49.2636 29.0234 49.2636 28.5312C49.2636 28.1094 49.1034 27.7695 48.7831 27.5117C48.4706 27.2461 48.0253 27.0508 47.4472 26.9258L45.3261 26.4453C44.1464 26.1797 43.2558 25.75 42.6542 25.1562C42.0605 24.5625 41.7636 23.8008 41.7636 22.8711C41.7636 22.1211 41.9667 21.4609 42.373 20.8906C42.787 20.3203 43.3613 19.875 44.0956 19.5547C44.83 19.2344 45.6777 19.0742 46.6386 19.0742C47.5761 19.0742 48.3925 19.2266 49.0878 19.5312C49.7909 19.8359 50.3495 20.2656 50.7636 20.8203C51.1855 21.375 51.4472 22.0273 51.5488 22.7773L49.205 23.0117C49.1269 22.4648 48.873 22.0039 48.4433 21.6289C48.0136 21.2539 47.4238 21.0664 46.6738 21.0664C45.9628 21.0664 45.3847 21.2305 44.9394 21.5586C44.5019 21.8867 44.2831 22.293 44.2831 22.7773C44.2831 23.1992 44.4433 23.543 44.7636 23.8086C45.0839 24.0742 45.5566 24.2773 46.1816 24.418L48.2792 24.8867C49.498 25.1602 50.3925 25.582 50.9628 26.1523C51.5409 26.7148 51.83 27.4492 51.83 28.3555C51.83 29.1445 51.6073 29.8359 51.162 30.4297C50.7245 31.0156 50.1152 31.4727 49.3339 31.8008C48.5527 32.1211 47.662 32.2812 46.662 32.2812ZM58.6575 32.2109C57.7981 32.2109 57.0286 32.0273 56.3489 31.6602C55.677 31.2852 55.1497 30.7305 54.7669 29.9961C54.3841 29.2617 54.1927 28.3594 54.1927 27.2891V19.2969H56.7122V26.9727C56.7122 27.9414 56.9544 28.6875 57.4388 29.2109C57.9231 29.7266 58.595 29.9844 59.4544 29.9844C60.0169 29.9844 60.5247 29.8672 60.9778 29.6328C61.4388 29.3906 61.7981 29.0273 62.0559 28.543C62.3216 28.0508 62.4544 27.4375 62.4544 26.7031V19.2969H64.9856V32H62.5364L62.5247 28.8711H62.9583C62.5677 30.0117 62.0091 30.8555 61.2825 31.4023C60.5559 31.9414 59.6809 32.2109 58.6575 32.2109ZM67.9811 36.8984V19.2969H70.442V21.2422H70.5592C70.7702 20.8672 71.0436 20.5195 71.3795 20.1992C71.7233 19.8711 72.1413 19.6055 72.6334 19.4023C73.1256 19.1992 73.7038 19.0977 74.3678 19.0977C75.4303 19.0977 76.3639 19.3672 77.1686 19.9062C77.9811 20.4375 78.6178 21.1953 79.0788 22.1797C79.5397 23.1641 79.7702 24.3242 79.7702 25.6602C79.7702 26.9961 79.5397 28.1602 79.0788 29.1523C78.6256 30.1367 77.9928 30.8984 77.1803 31.4375C76.3756 31.9766 75.4342 32.2461 74.3561 32.2461C73.7077 32.2461 73.1413 32.1445 72.6569 31.9414C72.1725 31.7383 71.7584 31.4688 71.4147 31.1328C71.0788 30.7969 70.8014 30.4375 70.5827 30.0547H70.5006V36.8984H67.9811ZM73.8288 30.0898C74.5319 30.0898 75.1334 29.9102 75.6334 29.5508C76.1413 29.1836 76.528 28.668 76.7936 28.0039C77.067 27.3398 77.2038 26.5547 77.2038 25.6484C77.2038 24.75 77.067 23.9727 76.7936 23.3164C76.528 22.6602 76.1413 22.1523 75.6334 21.793C75.1334 21.4258 74.5319 21.2422 73.8288 21.2422C73.11 21.2422 72.4928 21.4258 71.9772 21.793C71.4616 22.1602 71.067 22.6758 70.7936 23.3398C70.528 23.9961 70.3952 24.7656 70.3952 25.6484C70.3952 26.5391 70.5319 27.3164 70.8053 27.9805C71.0788 28.6445 71.4733 29.1641 71.9889 29.5391C72.5045 29.9062 73.1178 30.0898 73.8288 30.0898ZM82.1445 36.8984V19.2969H84.6055V21.2422H84.7227C84.9336 20.8672 85.207 20.5195 85.543 20.1992C85.8867 19.8711 86.3047 19.6055 86.7969 19.4023C87.2891 19.1992 87.8672 19.0977 88.5312 19.0977C89.5938 19.0977 90.5273 19.3672 91.332 19.9062C92.1445 20.4375 92.7812 21.1953 93.2422 22.1797C93.7031 23.1641 93.9336 24.3242 93.9336 25.6602C93.9336 26.9961 93.7031 28.1602 93.2422 29.1523C92.7891 30.1367 92.1562 30.8984 91.3438 31.4375C90.5391 31.9766 89.5977 32.2461 88.5195 32.2461C87.8711 32.2461 87.3047 32.1445 86.8203 31.9414C86.3359 31.7383 85.9219 31.4688 85.5781 31.1328C85.2422 30.7969 84.9648 30.4375 84.7461 30.0547H84.6641V36.8984H82.1445ZM87.9922 30.0898C88.6953 30.0898 89.2969 29.9102 89.7969 29.5508C90.3047 29.1836 90.6914 28.668 90.957 28.0039C91.2305 27.3398 91.3672 26.5547 91.3672 25.6484C91.3672 24.75 91.2305 23.9727 90.957 23.3164C90.6914 22.6602 90.3047 22.1523 89.7969 21.793C89.2969 21.4258 88.6953 21.2422 87.9922 21.2422C87.2734 21.2422 86.6562 21.4258 86.1406 21.793C85.625 22.1602 85.2305 22.6758 84.957 23.3398C84.6914 23.9961 84.5586 24.7656 84.5586 25.6484C84.5586 26.5391 84.6953 27.3164 84.9688 27.9805C85.2422 28.6445 85.6367 29.1641 86.1523 29.5391C86.668 29.9062 87.2812 30.0898 87.9922 30.0898ZM101.71 32.2812C100.507 32.2812 99.4525 32.0039 98.5463 31.4492C97.6478 30.8945 96.9486 30.125 96.4486 29.1406C95.9486 28.1484 95.6986 27 95.6986 25.6953C95.6986 24.3828 95.9486 23.2305 96.4486 22.2383C96.9486 21.2383 97.6478 20.4609 98.5463 19.9062C99.4525 19.3516 100.507 19.0742 101.71 19.0742C102.913 19.0742 103.964 19.3516 104.863 19.9062C105.769 20.4609 106.472 21.2383 106.972 22.2383C107.472 23.2305 107.722 24.3828 107.722 25.6953C107.722 27 107.472 28.1484 106.972 29.1406C106.472 30.125 105.769 30.8945 104.863 31.4492C103.964 32.0039 102.913 32.2812 101.71 32.2812ZM101.71 30.125C102.46 30.125 103.089 29.9336 103.597 29.5508C104.113 29.168 104.503 28.6445 104.769 27.9805C105.035 27.3086 105.167 26.5469 105.167 25.6953C105.167 24.8281 105.035 24.0625 104.769 23.3984C104.503 22.7266 104.113 22.1992 103.597 21.8164C103.089 21.4258 102.46 21.2305 101.71 21.2305C100.968 21.2305 100.339 21.4219 99.8236 21.8047C99.308 22.1875 98.9173 22.7148 98.6517 23.3867C98.3939 24.0586 98.265 24.8281 98.265 25.6953C98.265 26.5469 98.3939 27.3086 98.6517 27.9805C98.9173 28.6445 99.308 29.168 99.8236 29.5508C100.339 29.9336 100.968 30.125 101.71 30.125ZM110.096 32V19.2969H112.522V21.3477H112.604C112.839 20.6602 113.225 20.1211 113.764 19.7305C114.303 19.332 114.964 19.1328 115.745 19.1328C115.925 19.1328 116.104 19.1406 116.284 19.1562C116.464 19.1641 116.612 19.1758 116.729 19.1914V21.5703C116.635 21.5469 116.46 21.5195 116.202 21.4883C115.952 21.457 115.686 21.4414 115.405 21.4414C114.882 21.4414 114.409 21.5586 113.987 21.793C113.565 22.0195 113.229 22.3555 112.979 22.8008C112.737 23.2383 112.616 23.7734 112.616 24.4062V32H110.096ZM124.834 19.2969V21.3711H117.697V19.2969H124.834ZM119.76 16.0391H122.279V28.6016C122.279 29.0938 122.381 29.4453 122.584 29.6562C122.787 29.8672 123.139 29.9727 123.639 29.9727C123.803 29.9727 123.994 29.9648 124.213 29.9492C124.44 29.9336 124.635 29.918 124.799 29.9023L124.998 31.9648C124.764 32.0039 124.494 32.0312 124.19 32.0469C123.893 32.0625 123.607 32.0703 123.334 32.0703C122.154 32.0703 121.264 31.8008 120.662 31.2617C120.061 30.7227 119.76 29.9297 119.76 28.8828V16.0391Z" fill="white"/>
</svg>
