<svg width="200" height="48" viewBox="0 0 200 48" fill="none" xmlns="http://www.w3.org/2000/svg">
<rect width="200" height="48" rx="24" fill="#1E1E1F"/>
<circle cx="24" cy="25" r="8" fill="#00D4AE"/>
<path d="M47.4253 19.2969V21.3711H40.2886V19.2969H47.4253ZM42.3511 16.0391H44.8706V28.6016C44.8706 29.0938 44.9722 29.4453 45.1753 29.6562C45.3784 29.8672 45.73 29.9727 46.23 29.9727C46.3941 29.9727 46.5855 29.9648 46.8042 29.9492C47.0308 29.9336 47.2261 29.918 47.3902 29.9023L47.5894 31.9648C47.355 32.0039 47.0855 32.0312 46.7808 32.0469C46.4839 32.0625 46.1988 32.0703 45.9253 32.0703C44.7456 32.0703 43.855 31.8008 43.2534 31.2617C42.6519 30.7227 42.3511 29.9297 42.3511 28.8828V16.0391ZM49.5536 32V19.2969H51.9794V21.3477H52.0614C52.2958 20.6602 52.6825 20.1211 53.2216 19.7305C53.7606 19.332 54.4208 19.1328 55.202 19.1328C55.3817 19.1328 55.5614 19.1406 55.7411 19.1562C55.9208 19.1641 56.0692 19.1758 56.1864 19.1914V21.5703C56.0927 21.5469 55.9169 21.5195 55.6591 21.4883C55.4091 21.457 55.1434 21.4414 54.8622 21.4414C54.3388 21.4414 53.8661 21.5586 53.4442 21.793C53.0223 22.0195 52.6864 22.3555 52.4364 22.8008C52.1942 23.2383 52.0731 23.7734 52.0731 24.4062V32H49.5536ZM61.6077 32.2344C60.7795 32.2344 60.0373 32.0898 59.3811 31.8008C58.7248 31.5117 58.2053 31.082 57.8225 30.5117C57.4397 29.9336 57.2483 29.2266 57.2483 28.3906C57.2483 27.6641 57.385 27.0703 57.6584 26.6094C57.9397 26.1484 58.3147 25.7812 58.7834 25.5078C59.26 25.2344 59.7952 25.0312 60.3889 24.8984C60.9827 24.7578 61.592 24.6523 62.217 24.582C62.9905 24.4805 63.6077 24.4023 64.0686 24.3477C64.5373 24.2852 64.8772 24.1875 65.0881 24.0547C65.2991 23.9219 65.4045 23.707 65.4045 23.4102V23.3164C65.4045 22.8789 65.3069 22.5 65.1116 22.1797C64.9163 21.8516 64.6311 21.6016 64.2561 21.4297C63.8889 21.25 63.4358 21.1602 62.8967 21.1602C62.3498 21.1602 61.8733 21.2461 61.467 21.418C61.0686 21.5898 60.7444 21.8203 60.4944 22.1094C60.2522 22.3906 60.092 22.707 60.0139 23.0586L57.5881 22.7773C57.7444 21.9883 58.0647 21.3203 58.5491 20.7734C59.0413 20.2266 59.6584 19.8125 60.4006 19.5312C61.1506 19.2422 61.9827 19.0977 62.8967 19.0977C63.553 19.0977 64.1819 19.1797 64.7834 19.3438C65.385 19.5078 65.9202 19.7617 66.3889 20.1055C66.8577 20.4492 67.2248 20.8945 67.4905 21.4414C67.7639 21.9883 67.9006 22.6484 67.9006 23.4219V32H65.4397V30.2305H65.3577C65.1858 30.5664 64.9397 30.8867 64.6194 31.1914C64.3069 31.4961 63.9045 31.7461 63.4123 31.9414C62.9202 32.1367 62.3186 32.2344 61.6077 32.2344ZM62.135 30.2188C62.8538 30.2188 63.4553 30.0859 63.9397 29.8203C64.4241 29.5469 64.7873 29.1914 65.0295 28.7539C65.2795 28.3086 65.4045 27.832 65.4045 27.3242V25.7773C65.3186 25.8555 65.1623 25.9297 64.9358 26C64.717 26.0625 64.4553 26.1211 64.1506 26.1758C63.8538 26.2305 63.5452 26.2812 63.2248 26.3281C62.9123 26.375 62.6194 26.418 62.3459 26.457C61.885 26.5195 61.4553 26.625 61.0569 26.7734C60.6584 26.9141 60.3381 27.1172 60.0959 27.3828C59.8616 27.6484 59.7444 27.9961 59.7444 28.4258C59.7444 28.8086 59.8459 29.1328 60.0491 29.3984C60.2522 29.6641 60.5295 29.8672 60.8811 30.0078C61.2405 30.1484 61.6584 30.2188 62.135 30.2188ZM73.4156 24.5938V32H70.8961V19.2969H73.3336L73.3453 22.4375H72.9117C73.3023 21.2969 73.8609 20.457 74.5875 19.918C75.3141 19.3711 76.1891 19.0977 77.2125 19.0977C78.0797 19.0977 78.8492 19.2852 79.5211 19.6602C80.193 20.0273 80.7203 20.5742 81.1031 21.3008C81.4859 22.0273 81.6773 22.9336 81.6773 24.0195V32H79.1578V24.3242C79.1578 23.3555 78.9156 22.6133 78.4313 22.0977C77.9547 21.582 77.2867 21.3242 76.4273 21.3242C75.857 21.3242 75.3453 21.4453 74.8922 21.6875C74.4391 21.9219 74.0797 22.2812 73.8141 22.7656C73.5484 23.25 73.4156 23.8594 73.4156 24.5938ZM89.3017 32.2812C88.3486 32.2812 87.497 32.1367 86.747 31.8477C86.0048 31.5586 85.3994 31.1289 84.9306 30.5586C84.4619 29.9805 84.1767 29.2734 84.0752 28.4375L86.5127 28.2148C86.6298 28.8867 86.9228 29.3984 87.3916 29.75C87.8681 30.0938 88.497 30.2656 89.2783 30.2656C90.083 30.2656 90.7197 30.1016 91.1884 29.7734C91.665 29.4375 91.9033 29.0234 91.9033 28.5312C91.9033 28.1094 91.7431 27.7695 91.4228 27.5117C91.1103 27.2461 90.665 27.0508 90.0869 26.9258L87.9658 26.4453C86.7861 26.1797 85.8955 25.75 85.2939 25.1562C84.7002 24.5625 84.4033 23.8008 84.4033 22.8711C84.4033 22.1211 84.6064 21.4609 85.0127 20.8906C85.4267 20.3203 86.0009 19.875 86.7353 19.5547C87.4697 19.2344 88.3173 19.0742 89.2783 19.0742C90.2158 19.0742 91.0322 19.2266 91.7275 19.5312C92.4306 19.8359 92.9892 20.2656 93.4033 20.8203C93.8252 21.375 94.0869 22.0273 94.1884 22.7773L91.8447 23.0117C91.7666 22.4648 91.5127 22.0039 91.083 21.6289C90.6533 21.2539 90.0634 21.0664 89.3134 21.0664C88.6025 21.0664 88.0244 21.2305 87.5791 21.5586C87.1416 21.8867 86.9228 22.293 86.9228 22.7773C86.9228 23.1992 87.083 23.543 87.4033 23.8086C87.7236 24.0742 88.1963 24.2773 88.8213 24.418L90.9189 24.8867C92.1377 25.1602 93.0322 25.582 93.6025 26.1523C94.1806 26.7148 94.4697 27.4492 94.4697 28.3555C94.4697 29.1445 94.247 29.8359 93.8017 30.4297C93.3642 31.0156 92.7548 31.4727 91.9736 31.8008C91.1923 32.1211 90.3017 32.2812 89.3017 32.2812ZM96.8323 36.8984V19.2969H99.2933V21.2422H99.4105C99.6214 20.8672 99.8948 20.5195 100.231 20.1992C100.575 19.8711 100.993 19.6055 101.485 19.4023C101.977 19.1992 102.555 19.0977 103.219 19.0977C104.282 19.0977 105.215 19.3672 106.02 19.9062C106.832 20.4375 107.469 21.1953 107.93 22.1797C108.391 23.1641 108.621 24.3242 108.621 25.6602C108.621 26.9961 108.391 28.1602 107.93 29.1523C107.477 30.1367 106.844 30.8984 106.032 31.4375C105.227 31.9766 104.285 32.2461 103.207 32.2461C102.559 32.2461 101.993 32.1445 101.508 31.9414C101.024 31.7383 100.61 31.4688 100.266 31.1328C99.93 30.7969 99.6527 30.4375 99.4339 30.0547H99.3519V36.8984H96.8323ZM102.68 30.0898C103.383 30.0898 103.985 29.9102 104.485 29.5508C104.993 29.1836 105.379 28.668 105.645 28.0039C105.918 27.3398 106.055 26.5547 106.055 25.6484C106.055 24.75 105.918 23.9727 105.645 23.3164C105.379 22.6602 104.993 22.1523 104.485 21.793C103.985 21.4258 103.383 21.2422 102.68 21.2422C101.961 21.2422 101.344 21.4258 100.828 21.793C100.313 22.1602 99.9183 22.6758 99.6448 23.3398C99.3792 23.9961 99.2464 24.7656 99.2464 25.6484C99.2464 26.5391 99.3831 27.3164 99.6566 27.9805C99.93 28.6445 100.325 29.1641 100.84 29.5391C101.356 29.9062 101.969 30.0898 102.68 30.0898ZM114.91 32.2344C114.082 32.2344 113.34 32.0898 112.683 31.8008C112.027 31.5117 111.507 31.082 111.125 30.5117C110.742 29.9336 110.55 29.2266 110.55 28.3906C110.55 27.6641 110.687 27.0703 110.961 26.6094C111.242 26.1484 111.617 25.7812 112.086 25.5078C112.562 25.2344 113.097 25.0312 113.691 24.8984C114.285 24.7578 114.894 24.6523 115.519 24.582C116.293 24.4805 116.91 24.4023 117.371 24.3477C117.84 24.2852 118.179 24.1875 118.39 24.0547C118.601 23.9219 118.707 23.707 118.707 23.4102V23.3164C118.707 22.8789 118.609 22.5 118.414 22.1797C118.218 21.8516 117.933 21.6016 117.558 21.4297C117.191 21.25 116.738 21.1602 116.199 21.1602C115.652 21.1602 115.175 21.2461 114.769 21.418C114.371 21.5898 114.047 21.8203 113.797 22.1094C113.554 22.3906 113.394 22.707 113.316 23.0586L110.89 22.7773C111.047 21.9883 111.367 21.3203 111.851 20.7734C112.343 20.2266 112.961 19.8125 113.703 19.5312C114.453 19.2422 115.285 19.0977 116.199 19.0977C116.855 19.0977 117.484 19.1797 118.086 19.3438C118.687 19.5078 119.222 19.7617 119.691 20.1055C120.16 20.4492 120.527 20.8945 120.793 21.4414C121.066 21.9883 121.203 22.6484 121.203 23.4219V32H118.742V30.2305H118.66C118.488 30.5664 118.242 30.8867 117.922 31.1914C117.609 31.4961 117.207 31.7461 116.715 31.9414C116.222 32.1367 115.621 32.2344 114.91 32.2344ZM115.437 30.2188C116.156 30.2188 116.757 30.0859 117.242 29.8203C117.726 29.5469 118.09 29.1914 118.332 28.7539C118.582 28.3086 118.707 27.832 118.707 27.3242V25.7773C118.621 25.8555 118.465 25.9297 118.238 26C118.019 26.0625 117.757 26.1211 117.453 26.1758C117.156 26.2305 116.847 26.2812 116.527 26.3281C116.215 26.375 115.922 26.418 115.648 26.457C115.187 26.5195 114.757 26.625 114.359 26.7734C113.961 26.9141 113.64 27.1172 113.398 27.3828C113.164 27.6484 113.047 27.9961 113.047 28.4258C113.047 28.8086 113.148 29.1328 113.351 29.3984C113.554 29.6641 113.832 29.8672 114.183 30.0078C114.543 30.1484 114.961 30.2188 115.437 30.2188ZM124.198 32V19.2969H126.624V21.3477H126.706C126.94 20.6602 127.327 20.1211 127.866 19.7305C128.405 19.332 129.065 19.1328 129.847 19.1328C130.026 19.1328 130.206 19.1406 130.386 19.1562C130.565 19.1641 130.714 19.1758 130.831 19.1914V21.5703C130.737 21.5469 130.562 21.5195 130.304 21.4883C130.054 21.457 129.788 21.4414 129.507 21.4414C128.983 21.4414 128.511 21.5586 128.089 21.793C127.667 22.0195 127.331 22.3555 127.081 22.8008C126.839 23.2383 126.718 23.7734 126.718 24.4062V32H124.198ZM137.881 32.2812C136.623 32.2812 135.541 32.0039 134.635 31.4492C133.737 30.8867 133.041 30.1133 132.549 29.1289C132.065 28.1367 131.823 26.9961 131.823 25.707C131.823 24.4102 132.069 23.2656 132.561 22.2734C133.053 21.2734 133.741 20.4922 134.623 19.9297C135.514 19.3594 136.541 19.0742 137.705 19.0742C138.526 19.0742 139.288 19.2148 139.991 19.4961C140.694 19.7773 141.307 20.1953 141.83 20.75C142.362 21.3047 142.776 21.9883 143.073 22.8008C143.37 23.6055 143.518 24.5352 143.518 25.5898V26.375H133.077V24.4766H142.205L141.069 25.0742C141.069 24.293 140.936 23.6094 140.67 23.0234C140.405 22.4375 140.022 21.9844 139.522 21.6641C139.03 21.3359 138.428 21.1719 137.717 21.1719C137.022 21.1719 136.42 21.3359 135.913 21.6641C135.405 21.9844 135.01 22.4297 134.729 23C134.455 23.5703 134.319 24.2227 134.319 24.957V26.1289C134.319 26.957 134.463 27.6758 134.752 28.2852C135.041 28.8945 135.455 29.3633 135.995 29.6914C136.534 30.0195 137.17 30.1836 137.905 30.1836C138.42 30.1836 138.881 30.1094 139.288 29.9609C139.694 29.8047 140.034 29.582 140.307 29.293C140.588 29.0039 140.795 28.6602 140.928 28.2617L143.319 28.5078C143.147 29.2578 142.807 29.9141 142.299 30.4766C141.799 31.0391 141.17 31.4805 140.413 31.8008C139.655 32.1211 138.811 32.2812 137.881 32.2812ZM148.365 24.5938V32H145.845V19.2969H148.283L148.295 22.4375H147.861C148.252 21.2969 148.81 20.457 149.537 19.918C150.263 19.3711 151.138 19.0977 152.162 19.0977C153.029 19.0977 153.799 19.2852 154.47 19.6602C155.142 20.0273 155.67 20.5742 156.053 21.3008C156.435 22.0273 156.627 22.9336 156.627 24.0195V32H154.107V24.3242C154.107 23.3555 153.865 22.6133 153.381 22.0977C152.904 21.582 152.236 21.3242 151.377 21.3242C150.806 21.3242 150.295 21.4453 149.842 21.6875C149.388 21.9219 149.029 22.2812 148.763 22.7656C148.498 23.25 148.365 23.8594 148.365 24.5938ZM165.001 32.2812C163.798 32.2812 162.747 32.0039 161.849 31.4492C160.95 30.8945 160.251 30.1211 159.751 29.1289C159.251 28.1367 159.001 26.9922 159.001 25.6953C159.001 24.3828 159.251 23.2305 159.751 22.2383C160.251 21.2383 160.95 20.4609 161.849 19.9062C162.747 19.3516 163.798 19.0742 165.001 19.0742C165.712 19.0742 166.372 19.1758 166.982 19.3789C167.599 19.582 168.146 19.8711 168.622 20.2461C169.099 20.6133 169.493 21.0547 169.806 21.5703C170.118 22.0859 170.329 22.6602 170.439 23.293L167.989 23.5625C167.919 23.2109 167.798 22.8945 167.626 22.6133C167.462 22.332 167.255 22.0898 167.005 21.8867C166.755 21.6758 166.462 21.5156 166.126 21.4062C165.798 21.2891 165.427 21.2305 165.013 21.2305C164.263 21.2305 163.63 21.4219 163.114 21.8047C162.607 22.1875 162.22 22.7148 161.954 23.3867C161.696 24.0586 161.568 24.8281 161.568 25.6953C161.568 26.5469 161.696 27.3086 161.954 27.9805C162.22 28.6445 162.607 29.168 163.114 29.5508C163.63 29.9336 164.263 30.125 165.013 30.125C165.427 30.125 165.798 30.0703 166.126 29.9609C166.462 29.8438 166.751 29.6797 166.993 29.4688C167.243 29.2578 167.45 29.0078 167.614 28.7188C167.786 28.4219 167.915 28.0977 168.001 27.7461L170.462 28.0039C170.353 28.6367 170.142 29.2148 169.829 29.7383C169.517 30.2617 169.118 30.7148 168.634 31.0977C168.157 31.4727 167.61 31.7656 166.993 31.9766C166.376 32.1797 165.712 32.2812 165.001 32.2812ZM172.332 36.8164L172.614 34.7188L173.481 34.7539C173.825 34.8086 174.129 34.7969 174.395 34.7188C174.661 34.6406 174.891 34.4805 175.086 34.2383C175.29 33.9961 175.461 33.6602 175.602 33.2305L176.036 31.9766L171.172 19.2969H173.879L176.399 26.3867C176.657 27.1055 176.887 27.8242 177.09 28.543C177.293 29.2617 177.5 29.9805 177.711 30.6992H176.985C177.196 29.9805 177.407 29.2617 177.618 28.543C177.829 27.8164 178.059 27.0977 178.309 26.3867L180.852 19.2969H183.524L177.875 34.0156C177.625 34.6562 177.317 35.1914 176.95 35.6211C176.59 36.0586 176.165 36.3867 175.672 36.6055C175.188 36.832 174.633 36.9453 174.008 36.9453C173.68 36.9453 173.372 36.9297 173.082 36.8984C172.793 36.875 172.543 36.8477 172.332 36.8164Z" fill="#00D4AE"/>
</svg>
